<?xml version="1.0" encoding="UTF-8"?>
<svg xmlns="http://www.w3.org/2000/svg" xmlns:ooo="http://xml.openoffice.org/svg/export" xmlns:xlink="http://www.w3.org/1999/xlink" version="1.2" baseProfile="tiny" viewBox="0 0 15375 17876" fill-rule="evenodd" clip-path="url(#presentation_clip_path)" stroke-width="28.222" stroke-linejoin="round" xml:space="preserve">
 <defs class="ClipPathGroup">
  <clipPath id="presentation_clip_path" clipPathUnits="userSpaceOnUse">
   <rect x="0" y="0" width="15375" height="17876"/>
  </clipPath>
 </defs>
 <defs class="TextShapeIndex">
  <g ooo:slide="id1" ooo:id-list="id3 id4 id5 id6 id7 id8 id9 id10 id11 id12 id13 id14 id15 id16 id17"/>
 </defs>
 <defs class="EmbeddedBulletChars">
  <g id="bullet-char-template(57356)" transform="scale(0.00048828125,-0.00048828125)">
   <path d="M 580,1141 L 1163,571 580,0 -4,571 580,1141 Z"/>
  </g>
  <g id="bullet-char-template(57354)" transform="scale(0.00048828125,-0.00048828125)">
   <path d="M 8,1128 L 1137,1128 1137,0 8,0 8,1128 Z"/>
  </g>
  <g id="bullet-char-template(10146)" transform="scale(0.00048828125,-0.00048828125)">
   <path d="M 174,0 L 602,739 174,1481 1456,739 174,0 Z M 1358,739 L 309,1346 659,739 1358,739 Z"/>
  </g>
  <g id="bullet-char-template(10132)" transform="scale(0.00048828125,-0.00048828125)">
   <path d="M 2015,739 L 1276,0 717,0 1260,543 174,543 174,936 1260,936 717,1481 1274,1481 2015,739 Z"/>
  </g>
  <g id="bullet-char-template(10007)" transform="scale(0.00048828125,-0.00048828125)">
   <path d="M 0,-2 C -7,14 -16,27 -25,37 L 356,567 C 262,823 215,952 215,954 215,979 228,992 255,992 264,992 276,990 289,987 310,991 331,999 354,1012 L 381,999 492,748 772,1049 836,1024 860,1049 C 881,1039 901,1025 922,1006 886,937 835,863 770,784 769,783 710,716 594,584 L 774,223 C 774,196 753,168 711,139 L 727,119 C 717,90 699,76 672,76 641,76 570,178 457,381 L 164,-76 C 142,-110 111,-127 72,-127 30,-127 9,-110 8,-76 1,-67 -2,-52 -2,-32 -2,-23 -1,-13 0,-2 Z"/>
  </g>
  <g id="bullet-char-template(10004)" transform="scale(0.00048828125,-0.00048828125)">
   <path d="M 285,-33 C 182,-33 111,30 74,156 52,228 41,333 41,471 41,549 55,616 82,672 116,743 169,778 240,778 293,778 328,747 346,684 L 369,508 C 377,444 397,411 428,410 L 1163,1116 C 1174,1127 1196,1133 1229,1133 1271,1133 1292,1118 1292,1087 L 1292,965 C 1292,929 1282,901 1262,881 L 442,47 C 390,-6 338,-33 285,-33 Z"/>
  </g>
  <g id="bullet-char-template(9679)" transform="scale(0.00048828125,-0.00048828125)">
   <path d="M 813,0 C 632,0 489,54 383,161 276,268 223,411 223,592 223,773 276,916 383,1023 489,1130 632,1184 813,1184 992,1184 1136,1130 1245,1023 1353,916 1407,772 1407,592 1407,412 1353,268 1245,161 1136,54 992,0 813,0 Z"/>
  </g>
  <g id="bullet-char-template(8226)" transform="scale(0.00048828125,-0.00048828125)">
   <path d="M 346,457 C 273,457 209,483 155,535 101,586 74,649 74,723 74,796 101,859 155,911 209,963 273,989 346,989 419,989 480,963 531,910 582,859 608,796 608,723 608,648 583,586 532,535 482,483 420,457 346,457 Z"/>
  </g>
  <g id="bullet-char-template(8211)" transform="scale(0.00048828125,-0.00048828125)">
   <path d="M -4,459 L 1135,459 1135,606 -4,606 -4,459 Z"/>
  </g>
 </defs>
 <defs class="TextEmbeddedBitmaps"/>
 <g>
  <g id="id2" class="Master_Slide">
   <g id="bg-id2" class="Background"/>
   <g id="bo-id2" class="BackgroundObjects"/>
  </g>
 </g>
 <g class="SlideGroup">
  <g>
   <g id="id1" class="Slide" clip-path="url(#presentation_clip_path)">
    <g class="Page">
     <g class="com.sun.star.drawing.PolyPolygonShape">
      <g id="id3">
       <path fill="rgb(0,0,0)" stroke="none" d="M 1,-1 L 1,0 1,0 0,0 1,-1 Z"/>
      </g>
     </g>
     <g class="com.sun.star.drawing.PolyPolygonShape">
      <g id="id4">
       <path fill="rgb(0,0,0)" stroke="none" d="M 0,-1 L 1,-1 1,0 0,0 0,-1 Z"/>
      </g>
     </g>
     <g class="com.sun.star.drawing.PolyPolygonShape">
      <g id="id5">
       <path fill="rgb(0,0,0)" stroke="none" d="M 0,1 L 1,0 0,-1 2,0 0,1 Z M 1,0 L 0,-1 1,0 Z"/>
      </g>
     </g>
     <g class="com.sun.star.drawing.PolyPolygonShape">
      <g id="id6">
       <path fill="rgb(0,0,0)" stroke="none" d="M 2,0 L 1,1 1,1 1,0 0,0 0,0 1,0 1,-1 1,-1 2,0 Z"/>
      </g>
     </g>
     <g class="com.sun.star.drawing.ClosedBezierShape">
      <g id="id7">
       <path fill="rgb(0,0,0)" stroke="none" d="M 0,0 L 0,0 0,0 C 0,-1 0,-1 0,-1 L 0,-1 0,-1 0,-1 0,-1 1,-1 1,-1 1,-1 1,-1 1,-1 1,-1 1,0 1,0 1,0 1,0 1,0 1,0 0,0 Z"/>
      </g>
     </g>
     <g class="com.sun.star.drawing.ClosedBezierShape">
      <g id="id8">
       <path fill="rgb(0,0,0)" stroke="none" d="M 0,0 L 0,0 0,0 0,0 C 0,-1 0,-1 0,-1 L 0,0 0,0 0,0 1,-1 1,-1 C 2,-1 2,-1 2,-1 L 2,-1 1,-1 0,0 Z"/>
      </g>
     </g>
     <g class="com.sun.star.drawing.ClosedBezierShape">
      <g id="id9">
       <path fill="rgb(0,0,0)" stroke="none" d="M 1,0 C 0,0 0,0 0,0 L 0,0 0,-1 1,-1 1,-1 1,0 Z"/>
      </g>
     </g>
     <g class="com.sun.star.drawing.PolyPolygonShape">
      <g id="id10">
       <path fill="rgb(0,0,0)" stroke="none" d="M 0,-1 L 0,-1 Z"/>
      </g>
     </g>
     <g class="com.sun.star.drawing.PolyPolygonShape">
      <g id="id11">
       <path fill="rgb(0,0,0)" stroke="none" d="M 0,0 L 1,0 1,0 0,0 Z"/>
      </g>
     </g>
     <g class="com.sun.star.drawing.PolyPolygonShape">
      <g id="id12">
       <path fill="rgb(255,255,255)" stroke="none" d="M 1437,16440 L 1437,1439 9771,1439 13938,5606 13938,16440 1437,16440 Z"/>
      </g>
     </g>
     <g class="com.sun.star.drawing.PolyPolygonShape">
      <g id="id13">
       <path fill="none" stroke="rgb(0,0,0)" stroke-width="375" stroke-linejoin="round" d="M 1437,16440 L 1437,1439 9771,1439 13938,5606 13938,16440 1437,16440 Z"/>
      </g>
     </g>
     <g class="com.sun.star.drawing.PolyPolygonShape">
      <g id="id14">
       <path fill="rgb(178,178,178)" stroke="none" d="M 9770,1437 L 13938,5605 9770,5605 9770,1437 Z M 9770,1437 L 9770,1437 Z M 13938,5605 L 13938,5605 Z"/>
      </g>
     </g>
     <g class="com.sun.star.drawing.PolyPolygonShape">
      <g id="id15">
       <path fill="none" stroke="rgb(0,0,0)" stroke-width="375" stroke-linejoin="round" d="M 9770,1437 L 13938,5605 9770,5605 9770,1437 Z"/>
      </g>
     </g>
     <g class="com.sun.star.drawing.CustomShape">
      <g id="id16">
       <path fill="rgb(255,255,255)" stroke="none" d="M 7583,12000 C 7291,12000 7000,12291 7000,12583 L 7000,14917 C 7000,15209 7291,15501 7583,15501 L 14417,15501 C 14709,15501 15001,15209 15001,14917 L 15001,12583 C 15001,12291 14709,12000 14417,12000 L 7583,12000 Z M 7000,12000 L 7000,12000 Z M 15001,15501 L 15001,15501 Z"/>
       <path fill="none" stroke="rgb(51,51,51)" stroke-width="200" stroke-linejoin="round" d="M 7583,12000 C 7291,12000 7000,12291 7000,12583 L 7000,14917 C 7000,15209 7291,15501 7583,15501 L 14417,15501 C 14709,15501 15001,15209 15001,14917 L 15001,12583 C 15001,12291 14709,12000 14417,12000 L 7583,12000 Z"/>
      </g>
     </g>
     <g class="com.sun.star.drawing.CustomShape">
      <g id="id17">
       <path fill="rgb(51,153,255)" stroke="none" d="M 7600,14284 L 8196,14284 8196,14956 7600,14956 7600,14284 Z M 9909,13970 L 10454,14168 10439,14235 10422,14299 10403,14361 10382,14420 10360,14476 10335,14529 10309,14579 10280,14627 10250,14671 10218,14714 10185,14753 10149,14789 10111,14823 10072,14853 10031,14881 9988,14906 9943,14927 9895,14946 9843,14963 9789,14975 9732,14987 9672,14993 9609,14998 9543,14999 9463,14998 9386,14992 9313,14983 9245,14970 9180,14955 9118,14935 9060,14911 9007,14884 8956,14853 8907,14816 8859,14775 8813,14727 8770,14674 8727,14616 8687,14551 8648,14482 8613,14407 8582,14328 8557,14243 8536,14154 8519,14059 8507,13958 8500,13853 8498,13744 8502,13599 8515,13461 8535,13334 8564,13214 8582,13157 8601,13103 8623,13051 8647,13000 8672,12954 8701,12907 8730,12864 8763,12823 8796,12783 8832,12747 8870,12713 8909,12681 8950,12652 8993,12626 9037,12602 9083,12580 9181,12545 9285,12520 9396,12505 9514,12500 9607,12502 9694,12511 9776,12526 9854,12546 9925,12571 9992,12604 10054,12642 10111,12685 10164,12734 10213,12790 10258,12850 10301,12918 10339,12993 10375,13072 10406,13159 10435,13252 9885,13398 9870,13346 9863,13323 9856,13302 9848,13283 9841,13265 9833,13250 9825,13236 9812,13216 9798,13196 9783,13178 9767,13161 9751,13146 9734,13130 9716,13118 9698,13105 9679,13094 9659,13085 9639,13077 9618,13070 9596,13065 9574,13061 9552,13060 9529,13059 9503,13060 9477,13062 9453,13066 9429,13071 9406,13079 9384,13088 9363,13098 9342,13110 9322,13123 9303,13138 9285,13156 9267,13173 9250,13194 9235,13215 9220,13238 9205,13263 9195,13283 9185,13303 9176,13326 9168,13350 9154,13400 9141,13457 9132,13520 9125,13587 9121,13660 9120,13739 9122,13836 9126,13924 9135,14005 9145,14078 9160,14142 9168,14173 9178,14199 9187,14226 9198,14248 9209,14270 9222,14290 9235,14308 9248,14325 9263,14341 9278,14356 9293,14368 9310,14381 9327,14392 9344,14402 9362,14411 9381,14418 9401,14425 9421,14430 9463,14436 9507,14439 9550,14438 9591,14431 9629,14423 9647,14416 9663,14409 9680,14401 9696,14392 9711,14382 9725,14372 9739,14359 9753,14347 9765,14334 9777,14319 9799,14288 9820,14252 9839,14213 9856,14171 9871,14126 9886,14077 9899,14025 9909,13970 Z M 10647,14136 L 11238,14136 11243,14175 11249,14213 11258,14247 11267,14280 11278,14310 11289,14337 11302,14362 11316,14385 11329,14401 11342,14418 11355,14431 11370,14445 11385,14458 11400,14469 11416,14479 11433,14488 11451,14497 11469,14503 11488,14510 11507,14515 11548,14521 11591,14524 11623,14522 11653,14518 11681,14513 11708,14505 11733,14494 11756,14482 11766,14474 11777,14467 11786,14458 11796,14449 11812,14430 11827,14410 11833,14400 11839,14388 11844,14378 11849,14368 11853,14357 11857,14346 11860,14334 11863,14323 11865,14312 11866,14299 11867,14288 11867,14275 11867,14264 11866,14252 11865,14241 11863,14230 11861,14218 11858,14207 11854,14197 11850,14187 11846,14175 11841,14165 11829,14145 11815,14126 11799,14107 11789,14098 11779,14088 11767,14079 11754,14071 11722,14052 11685,14034 11642,14018 11594,14000 11480,13967 11382,13938 11291,13906 11207,13874 11130,13838 11061,13800 11000,13760 10945,13717 10921,13696 10898,13673 10877,13650 10857,13626 10838,13601 10821,13576 10805,13549 10791,13522 10777,13494 10766,13465 10755,13436 10747,13406 10738,13374 10733,13342 10728,13310 10725,13277 10722,13207 10723,13161 10727,13115 10734,13070 10745,13026 10757,12982 10773,12939 10791,12897 10812,12855 10836,12815 10862,12777 10892,12741 10924,12708 10960,12676 10998,12647 11039,12621 11082,12595 11129,12573 11181,12554 11235,12537 11295,12525 11359,12515 11428,12507 11500,12502 11577,12501 11671,12503 11758,12512 11840,12526 11916,12545 11987,12569 12052,12599 12082,12617 12111,12636 12138,12656 12164,12677 12189,12700 12213,12725 12235,12752 12255,12780 12275,12809 12293,12840 12311,12873 12326,12907 12340,12944 12354,12982 12376,13061 12394,13148 12405,13241 11820,13241 11813,13205 11805,13171 11795,13138 11783,13110 11770,13084 11763,13071 11756,13060 11747,13048 11739,13038 11730,13028 11721,13019 11712,13011 11701,13003 11692,12995 11680,12989 11657,12976 11633,12968 11605,12960 11577,12954 11547,12951 11515,12950 11489,12951 11464,12954 11441,12958 11419,12964 11400,12971 11391,12976 11383,12982 11374,12987 11367,12993 11359,12999 11352,13006 11340,13019 11328,13035 11323,13042 11318,13050 11314,13059 11310,13066 11307,13075 11305,13084 11302,13093 11300,13101 11299,13110 11297,13120 11296,13129 11296,13139 11296,13147 11297,13153 11299,13161 11300,13168 11301,13175 11303,13181 11305,13187 11308,13195 11311,13201 11314,13207 11322,13219 11331,13231 11342,13243 11348,13249 11354,13255 11363,13260 11371,13267 11392,13278 11416,13289 11444,13301 11476,13311 11551,13332 11740,13385 11900,13438 11969,13465 12031,13491 12087,13519 12134,13546 12177,13573 12216,13602 12253,13634 12286,13667 12317,13701 12344,13736 12368,13774 12390,13813 12409,13853 12426,13895 12440,13939 12451,13983 12460,14028 12466,14074 12470,14122 12471,14171 12469,14228 12465,14285 12457,14339 12445,14394 12429,14447 12411,14498 12389,14550 12364,14599 12336,14647 12305,14691 12272,14733 12236,14772 12197,14807 12155,14840 12111,14871 12065,14897 12015,14921 11963,14941 11907,14959 11848,14973 11786,14984 11721,14992 11653,14997 11581,14998 11457,14994 11344,14983 11241,14964 11146,14937 11103,14921 11062,14903 11024,14883 10989,14860 10955,14838 10924,14811 10896,14783 10870,14754 10824,14691 10782,14624 10746,14554 10715,14478 10690,14399 10670,14315 10656,14228 10647,14136 Z M 12675,14136 L 13266,14136 13271,14175 13277,14213 13286,14247 13295,14280 13306,14310 13317,14337 13330,14362 13345,14385 13357,14401 13370,14418 13383,14431 13398,14445 13413,14458 13429,14469 13444,14479 13461,14488 13479,14497 13497,14503 13516,14510 13535,14515 13576,14521 13619,14524 13651,14522 13681,14518 13709,14513 13737,14505 13761,14494 13784,14482 13794,14474 13805,14467 13814,14458 13824,14449 13841,14430 13855,14410 13862,14400 13867,14388 13872,14378 13877,14368 13882,14357 13885,14346 13888,14334 13891,14323 13893,14312 13894,14299 13895,14288 13895,14275 13895,14264 13894,14252 13893,14241 13891,14230 13889,14218 13886,14207 13883,14197 13878,14187 13874,14175 13869,14165 13857,14145 13843,14126 13827,14107 13817,14098 13807,14088 13795,14079 13782,14071 13750,14052 13713,14034 13670,14018 13622,14000 13508,13967 13410,13938 13319,13906 13235,13874 13159,13838 13089,13800 13028,13760 12974,13717 12949,13696 12926,13673 12905,13650 12885,13626 12866,13601 12850,13576 12833,13549 12819,13522 12805,13494 12794,13465 12783,13436 12775,13406 12767,13374 12761,13342 12756,13310 12753,13277 12750,13207 12751,13161 12755,13115 12762,13070 12773,13026 12785,12982 12801,12939 12819,12897 12840,12855 12864,12815 12891,12777 12920,12741 12953,12708 12988,12676 13026,12647 13067,12621 13110,12595 13158,12573 13209,12554 13264,12537 13324,12525 13388,12515 13456,12507 13528,12502 13605,12501 13699,12503 13786,12512 13868,12526 13945,12545 14015,12569 14080,12599 14111,12617 14139,12636 14166,12656 14193,12677 14217,12700 14241,12725 14263,12752 14283,12780 14303,12809 14321,12840 14339,12873 14354,12907 14368,12944 14382,12982 14404,13061 14422,13148 14433,13241 13848,13241 13842,13205 13833,13171 13823,13138 13811,13110 13799,13084 13791,13071 13784,13060 13775,13048 13767,13038 13759,13028 13749,13019 13740,13011 13729,13003 13720,12995 13708,12989 13685,12976 13661,12968 13634,12960 13605,12954 13575,12951 13543,12950 13517,12951 13492,12954 13470,12958 13448,12964 13429,12971 13419,12976 13411,12982 13402,12987 13395,12993 13388,12999 13380,13006 13368,13019 13356,13035 13351,13042 13347,13050 13342,13059 13338,13066 13335,13075 13333,13084 13330,13093 13328,13101 13327,13110 13326,13120 13325,13129 13325,13139 13325,13147 13326,13153 13327,13161 13328,13168 13329,13175 13331,13181 13333,13187 13336,13195 13339,13201 13342,13207 13350,13219 13359,13231 13370,13243 13376,13249 13382,13255 13391,13260 13399,13267 13420,13278 13444,13289 13472,13301 13504,13311 13579,13332 13768,13385 13928,13438 13997,13465 14059,13491 14115,13519 14162,13546 14205,13573 14244,13602 14281,13634 14314,13667 14345,13701 14372,13736 14396,13774 14419,13813 14437,13853 14454,13895 14468,13939 14479,13983 14488,14028 14494,14074 14498,14122 14499,14171 14497,14228 14493,14285 14485,14339 14473,14394 14457,14447 14440,14498 14417,14550 14392,14599 14364,14647 14333,14691 14300,14733 14264,14772 14225,14807 14183,14840 14139,14871 14093,14897 14043,14921 13991,14941 13935,14959 13876,14973 13814,14984 13749,14992 13681,14997 13609,14998 13485,14994 13372,14983 13269,14964 13174,14937 13131,14921 13090,14903 13052,14883 13017,14860 12983,14838 12953,14811 12924,14783 12898,14754 12852,14691 12810,14624 12774,14554 12743,14478 12718,14399 12698,14315 12685,14228 12675,14136 Z"/>
       <path fill="none" stroke="rgb(0,0,0)" stroke-width="26" stroke-linejoin="miter" d="M 7600,14284 L 8196,14284 8196,14956 7600,14956 7600,14284 Z"/>
       <path fill="none" stroke="rgb(0,0,0)" stroke-width="26" stroke-linejoin="miter" d="M 9909,13970 L 10454,14168 10439,14235 10422,14299 10403,14361 10382,14420 10360,14476 10335,14529 10309,14579 10280,14627 10250,14671 10218,14714 10185,14753 10149,14789 10111,14823 10072,14853 10031,14881 9988,14906 9943,14927 9895,14946 9843,14963 9789,14975 9732,14987 9672,14993 9609,14998 9543,14999 9463,14998 9386,14992 9313,14983 9245,14970 9180,14955 9118,14935 9060,14911 9007,14884 8956,14853 8907,14816 8859,14775 8813,14727 8770,14674 8727,14616 8687,14551 8648,14482 8613,14407 8582,14328 8557,14243 8536,14154 8519,14059 8507,13958 8500,13853 8498,13744 8502,13599 8515,13461 8535,13334 8564,13214 8582,13157 8601,13103 8623,13051 8647,13000 8672,12954 8701,12907 8730,12864 8763,12823 8796,12783 8832,12747 8870,12713 8909,12681 8950,12652 8993,12626 9037,12602 9083,12580 9181,12545 9285,12520 9396,12505 9514,12500 9607,12502 9694,12511 9776,12526 9854,12546 9925,12571 9992,12604 10054,12642 10111,12685 10164,12734 10213,12790 10258,12850 10301,12918 10339,12993 10375,13072 10406,13159 10435,13252 9885,13398 9870,13346 9863,13323 9856,13302 9848,13283 9841,13265 9833,13250 9825,13236 9812,13216 9798,13196 9783,13178 9767,13161 9751,13146 9734,13130 9716,13118 9698,13105 9679,13094 9659,13085 9639,13077 9618,13070 9596,13065 9574,13061 9552,13060 9529,13059 9503,13060 9477,13062 9453,13066 9429,13071 9406,13079 9384,13088 9363,13098 9342,13110 9322,13123 9303,13138 9285,13156 9267,13173 9250,13194 9235,13215 9220,13238 9205,13263 9195,13283 9185,13303 9176,13326 9168,13350 9154,13400 9141,13457 9132,13520 9125,13587 9121,13660 9120,13739 9122,13836 9126,13924 9135,14005 9145,14078 9160,14142 9168,14173 9178,14199 9187,14226 9198,14248 9209,14270 9222,14290 9235,14308 9248,14325 9263,14341 9278,14356 9293,14368 9310,14381 9327,14392 9344,14402 9362,14411 9381,14418 9401,14425 9421,14430 9463,14436 9507,14439 9550,14438 9591,14431 9629,14423 9647,14416 9663,14409 9680,14401 9696,14392 9711,14382 9725,14372 9739,14359 9753,14347 9765,14334 9777,14319 9799,14288 9820,14252 9839,14213 9856,14171 9871,14126 9886,14077 9899,14025 9909,13970 Z"/>
       <path fill="none" stroke="rgb(0,0,0)" stroke-width="26" stroke-linejoin="miter" d="M 10647,14136 L 11238,14136 11243,14175 11249,14213 11258,14247 11267,14280 11278,14310 11289,14337 11302,14362 11316,14385 11329,14401 11342,14418 11355,14431 11370,14445 11385,14458 11400,14469 11416,14479 11433,14488 11451,14497 11469,14503 11488,14510 11507,14515 11548,14521 11591,14524 11623,14522 11653,14518 11681,14513 11708,14505 11733,14494 11756,14482 11766,14474 11777,14467 11786,14458 11796,14449 11812,14430 11827,14410 11833,14400 11839,14388 11844,14378 11849,14368 11853,14357 11857,14346 11860,14334 11863,14323 11865,14312 11866,14299 11867,14288 11867,14275 11867,14264 11866,14252 11865,14241 11863,14230 11861,14218 11858,14207 11854,14197 11850,14187 11846,14175 11841,14165 11829,14145 11815,14126 11799,14107 11789,14098 11779,14088 11767,14079 11754,14071 11722,14052 11685,14034 11642,14018 11594,14000 11480,13967 11382,13938 11291,13906 11207,13874 11130,13838 11061,13800 11000,13760 10945,13717 10921,13696 10898,13673 10877,13650 10857,13626 10838,13601 10821,13576 10805,13549 10791,13522 10777,13494 10766,13465 10755,13436 10747,13406 10738,13374 10733,13342 10728,13310 10725,13277 10722,13207 10723,13161 10727,13115 10734,13070 10745,13026 10757,12982 10773,12939 10791,12897 10812,12855 10836,12815 10862,12777 10892,12741 10924,12708 10960,12676 10998,12647 11039,12621 11082,12595 11129,12573 11181,12554 11235,12537 11295,12525 11359,12515 11428,12507 11500,12502 11577,12501 11671,12503 11758,12512 11840,12526 11916,12545 11987,12569 12052,12599 12082,12617 12111,12636 12138,12656 12164,12677 12189,12700 12213,12725 12235,12752 12255,12780 12275,12809 12293,12840 12311,12873 12326,12907 12340,12944 12354,12982 12376,13061 12394,13148 12405,13241 11820,13241 11813,13205 11805,13171 11795,13138 11783,13110 11770,13084 11763,13071 11756,13060 11747,13048 11739,13038 11730,13028 11721,13019 11712,13011 11701,13003 11692,12995 11680,12989 11657,12976 11633,12968 11605,12960 11577,12954 11547,12951 11515,12950 11489,12951 11464,12954 11441,12958 11419,12964 11400,12971 11391,12976 11383,12982 11374,12987 11367,12993 11359,12999 11352,13006 11340,13019 11328,13035 11323,13042 11318,13050 11314,13059 11310,13066 11307,13075 11305,13084 11302,13093 11300,13101 11299,13110 11297,13120 11296,13129 11296,13139 11296,13147 11297,13153 11299,13161 11300,13168 11301,13175 11303,13181 11305,13187 11308,13195 11311,13201 11314,13207 11322,13219 11331,13231 11342,13243 11348,13249 11354,13255 11363,13260 11371,13267 11392,13278 11416,13289 11444,13301 11476,13311 11551,13332 11740,13385 11900,13438 11969,13465 12031,13491 12087,13519 12134,13546 12177,13573 12216,13602 12253,13634 12286,13667 12317,13701 12344,13736 12368,13774 12390,13813 12409,13853 12426,13895 12440,13939 12451,13983 12460,14028 12466,14074 12470,14122 12471,14171 12469,14228 12465,14285 12457,14339 12445,14394 12429,14447 12411,14498 12389,14550 12364,14599 12336,14647 12305,14691 12272,14733 12236,14772 12197,14807 12155,14840 12111,14871 12065,14897 12015,14921 11963,14941 11907,14959 11848,14973 11786,14984 11721,14992 11653,14997 11581,14998 11457,14994 11344,14983 11241,14964 11146,14937 11103,14921 11062,14903 11024,14883 10989,14860 10955,14838 10924,14811 10896,14783 10870,14754 10824,14691 10782,14624 10746,14554 10715,14478 10690,14399 10670,14315 10656,14228 10647,14136 Z"/>
       <path fill="none" stroke="rgb(0,0,0)" stroke-width="26" stroke-linejoin="miter" d="M 12675,14136 L 13266,14136 13271,14175 13277,14213 13286,14247 13295,14280 13306,14310 13317,14337 13330,14362 13345,14385 13357,14401 13370,14418 13383,14431 13398,14445 13413,14458 13429,14469 13444,14479 13461,14488 13479,14497 13497,14503 13516,14510 13535,14515 13576,14521 13619,14524 13651,14522 13681,14518 13709,14513 13737,14505 13761,14494 13784,14482 13794,14474 13805,14467 13814,14458 13824,14449 13841,14430 13855,14410 13862,14400 13867,14388 13872,14378 13877,14368 13882,14357 13885,14346 13888,14334 13891,14323 13893,14312 13894,14299 13895,14288 13895,14275 13895,14264 13894,14252 13893,14241 13891,14230 13889,14218 13886,14207 13883,14197 13878,14187 13874,14175 13869,14165 13857,14145 13843,14126 13827,14107 13817,14098 13807,14088 13795,14079 13782,14071 13750,14052 13713,14034 13670,14018 13622,14000 13508,13967 13410,13938 13319,13906 13235,13874 13159,13838 13089,13800 13028,13760 12974,13717 12949,13696 12926,13673 12905,13650 12885,13626 12866,13601 12850,13576 12833,13549 12819,13522 12805,13494 12794,13465 12783,13436 12775,13406 12767,13374 12761,13342 12756,13310 12753,13277 12750,13207 12751,13161 12755,13115 12762,13070 12773,13026 12785,12982 12801,12939 12819,12897 12840,12855 12864,12815 12891,12777 12920,12741 12953,12708 12988,12676 13026,12647 13067,12621 13110,12595 13158,12573 13209,12554 13264,12537 13324,12525 13388,12515 13456,12507 13528,12502 13605,12501 13699,12503 13786,12512 13868,12526 13945,12545 14015,12569 14080,12599 14111,12617 14139,12636 14166,12656 14193,12677 14217,12700 14241,12725 14263,12752 14283,12780 14303,12809 14321,12840 14339,12873 14354,12907 14368,12944 14382,12982 14404,13061 14422,13148 14433,13241 13848,13241 13842,13205 13833,13171 13823,13138 13811,13110 13799,13084 13791,13071 13784,13060 13775,13048 13767,13038 13759,13028 13749,13019 13740,13011 13729,13003 13720,12995 13708,12989 13685,12976 13661,12968 13634,12960 13605,12954 13575,12951 13543,12950 13517,12951 13492,12954 13470,12958 13448,12964 13429,12971 13419,12976 13411,12982 13402,12987 13395,12993 13388,12999 13380,13006 13368,13019 13356,13035 13351,13042 13347,13050 13342,13059 13338,13066 13335,13075 13333,13084 13330,13093 13328,13101 13327,13110 13326,13120 13325,13129 13325,13139 13325,13147 13326,13153 13327,13161 13328,13168 13329,13175 13331,13181 13333,13187 13336,13195 13339,13201 13342,13207 13350,13219 13359,13231 13370,13243 13376,13249 13382,13255 13391,13260 13399,13267 13420,13278 13444,13289 13472,13301 13504,13311 13579,13332 13768,13385 13928,13438 13997,13465 14059,13491 14115,13519 14162,13546 14205,13573 14244,13602 14281,13634 14314,13667 14345,13701 14372,13736 14396,13774 14419,13813 14437,13853 14454,13895 14468,13939 14479,13983 14488,14028 14494,14074 14498,14122 14499,14171 14497,14228 14493,14285 14485,14339 14473,14394 14457,14447 14440,14498 14417,14550 14392,14599 14364,14647 14333,14691 14300,14733 14264,14772 14225,14807 14183,14840 14139,14871 14093,14897 14043,14921 13991,14941 13935,14959 13876,14973 13814,14984 13749,14992 13681,14997 13609,14998 13485,14994 13372,14983 13269,14964 13174,14937 13131,14921 13090,14903 13052,14883 13017,14860 12983,14838 12953,14811 12924,14783 12898,14754 12852,14691 12810,14624 12774,14554 12743,14478 12718,14399 12698,14315 12685,14228 12675,14136 Z"/>
      </g>
     </g>
    </g>
   </g>
  </g>
 </g>
</svg>
